<?xml version="1.0" encoding="UTF-8" standalone="no" ?>
<!DOCTYPE svg PUBLIC "-//W3C//DTD SVG 1.1//EN" "http://www.w3.org/Graphics/SVG/1.1/DTD/svg11.dtd">
<svg xmlns="http://www.w3.org/2000/svg" xmlns:xlink="http://www.w3.org/1999/xlink" version="1.1" width="1080" height="1080" viewBox="0 0 1080 1080" xml:space="preserve">
<desc>Created with Fabric.js 4.2.0</desc>
<defs>
</defs>
<rect x="0" y="0" width="100%" height="100%" fill="transparent"></rect>
<g transform="matrix(1 0 0 1 540 540)" id="e08babd2-96ff-4237-97c6-042e6ca8bdd7"  >
<rect style="stroke: none; stroke-width: 1; stroke-dasharray: none; stroke-linecap: butt; stroke-dashoffset: 0; stroke-linejoin: miter; stroke-miterlimit: 4; fill: rgb(255,255,255); fill-opacity: 0; fill-rule: nonzero; opacity: 1;" vector-effect="non-scaling-stroke"  x="-540" y="-540" rx="0" ry="0" width="1080" height="1080" />
</g>
<g transform="matrix(1 0 0 1 540 540)" id="b581e840-26cc-40a1-95ca-3fe49a3dfc87"  >
</g>
<g transform="matrix(27 0 0 27 540 454.13)" id="bc33db51-b065-4ae8-b38f-46e728e74741"  >
<path style="stroke: rgb(0,0,0); stroke-width: 0; stroke-dasharray: none; stroke-linecap: butt; stroke-dashoffset: 0; stroke-linejoin: miter; stroke-miterlimit: 4; fill: rgb(255,255,255); fill-rule: nonzero; opacity: 1;" vector-effect="non-scaling-stroke"  transform=" translate(-12, -12)" d="M 6 8 C 7.1 8 8 7.1 8 6 C 8 4.9 7.1 4 6 4 C 4.9 4 4 4.9 4 6 C 4 7.1 4.9 8 6 8 z M 12 20 C 13.1 20 14 19.1 14 18 C 14 16.9 13.1 16 12 16 C 10.9 16 10 16.9 10 18 C 10 19.1 10.9 20 12 20 z M 6 20 C 7.1 20 8 19.1 8 18 C 8 16.9 7.1 16 6 16 C 4.9 16 4 16.9 4 18 C 4 19.1 4.9 20 6 20 z M 6 14 C 7.1 14 8 13.1 8 12 C 8 10.9 7.1 10 6 10 C 4.9 10 4 10.9 4 12 C 4 13.1 4.9 14 6 14 z M 12 14 C 13.1 14 14 13.1 14 12 C 14 10.9 13.1 10 12 10 C 10.9 10 10 10.9 10 12 C 10 13.1 10.9 14 12 14 z M 16 6 C 16 7.1 16.9 8 18 8 C 19.1 8 20 7.1 20 6 C 20 4.9 19.1 4 18 4 C 16.9 4 16 4.9 16 6 z M 12 8 C 13.1 8 14 7.1 14 6 C 14 4.9 13.1 4 12 4 C 10.9 4 10 4.9 10 6 C 10 7.1 10.9 8 12 8 z M 18 14 C 19.1 14 20 13.1 20 12 C 20 10.9 19.1 10 18 10 C 16.9 10 16 10.9 16 12 C 16 13.1 16.9 14 18 14 z M 18 20 C 19.1 20 20 19.1 20 18 C 20 16.9 19.1 16 18 16 C 16.9 16 16 16.9 16 18 C 16 19.1 16.9 20 18 20 z" stroke-linecap="round" />
</g>
</svg>